<svg width="24" height="24" viewBox="0 0 24 24" fill="none" xmlns="http://www.w3.org/2000/svg">
<path d="M8.65506 3.64468C10.5455 2.88788 12.6367 2.79451 14.587 3.37983C16.5374 3.96516 18.2316 5.19457 19.3929 6.86724C20.5542 8.5399 21.1139 10.557 20.9807 12.5889C20.8475 14.6208 20.0291 16.5475 18.6594 18.0542C17.2896 19.5609 15.4493 20.5585 13.4393 20.8842C11.4292 21.2098 9.36808 20.8442 7.59267 19.847C7.11114 19.5765 6.94003 18.9669 7.21048 18.4854C7.48094 18.0039 8.09054 17.8328 8.57207 18.1032C9.95295 18.8788 11.556 19.1632 13.1194 18.9099C14.6828 18.6566 16.1141 17.8807 17.1795 16.7088C18.2449 15.5369 18.8814 14.0384 18.985 12.458C19.0886 10.8776 18.6533 9.30882 17.75 8.00785C16.8468 6.70689 15.5291 5.75068 14.0121 5.29543C12.4952 4.84017 10.8687 4.91279 9.39838 5.50142C7.92805 6.09004 6.70079 7.15988 5.91709 8.53616C5.38434 9.47174 5.07796 10.5113 5.01304 11.5727L6.29289 10.2929C6.68342 9.90237 7.31658 9.90237 7.70711 10.2929C8.09763 10.6834 8.09763 11.3166 7.70711 11.7071L4.70711 14.7071C4.31658 15.0976 3.68342 15.0976 3.29289 14.7071L0.292893 11.7071C-0.0976311 11.3166 -0.0976311 10.6834 0.292893 10.2929C0.683417 9.90237 1.31658 9.90237 1.70711 10.2929L3.00911 11.5949C3.07287 10.1803 3.47003 8.79172 4.17911 7.5465C5.18673 5.77699 6.76464 4.40149 8.65506 3.64468Z" fill="black"/>
<path d="M12 7C12.5523 7 13 7.44772 13 8V11.4338L15.0145 12.6425C15.4881 12.9267 15.6416 13.5409 15.3575 14.0145C15.0733 14.4881 14.4591 14.6416 13.9855 14.3575L11.4855 12.8575C11.1843 12.6768 11 12.3513 11 12V8C11 7.44772 11.4477 7 12 7Z" fill="black"/>
</svg>
