<svg width="16" height="16" viewBox="0 0 16 16" fill="none" xmlns="http://www.w3.org/2000/svg">
<path fill-rule="evenodd" clip-rule="evenodd" d="M10.9283 6.40476L5.87087 11.4622C5.15683 12.1763 4.26959 12.6926 3.29603 12.9607L2.94167 13.0583L3.03926 12.704C3.30737 11.7304 3.82373 10.8432 4.53777 10.1291L9.59524 5.07167L10.9283 6.40476ZM12.3425 4.99055L13.2239 4.10919C13.592 3.74106 13.592 3.14421 13.2239 2.77609C12.8558 2.40797 12.2589 2.40797 11.8908 2.77609L11.0095 3.65746L12.3425 4.99055ZM10.4766 1.36188C11.6258 0.212708 13.489 0.212706 14.6381 1.36188C15.7873 2.51105 15.7873 4.37423 14.6381 5.5234L7.28508 12.8764C6.32612 13.8354 5.13455 14.5289 3.82705 14.889L1.73984 15.4638C1.00754 15.6654 0.334566 14.9925 0.536238 14.2602L1.11105 12.1729C1.47112 10.8655 2.1646 9.67388 3.12356 8.71492L10.4766 1.36188Z" fill="#000"/>
</svg>
