<svg width="28" height="28" viewBox="0 0 28 28" fill="none" xmlns="http://www.w3.org/2000/svg">
<path d="M22 4C21.4477 4 21 4.44772 21 5V23C21 23.5523 21.4477 24 22 24H24C24.5523 24 25 23.5523 25 23V5C25 4.44772 24.5523 4 24 4H22Z" fill="#000"/>
<path d="M10 7.63636C9.44772 7.63636 9 8.08408 9 8.63636V23C9 23.5523 9.44772 24 10 24H12C12.5523 24 13 23.5523 13 23V8.63636C13 8.08408 12.5523 7.63636 12 7.63636H10Z" fill="#000"/>
<path d="M4 14.9091C3.44772 14.9091 3 15.3568 3 15.9091V23C3 23.5523 3.44772 24 4 24H6C6.55228 24 7 23.5523 7 23V15.9091C7 15.3568 6.55228 14.9091 6 14.9091H4Z" fill="#000"/>
<path d="M15 13.1818C15 12.6295 15.4477 12.1818 16 12.1818H18C18.5523 12.1818 19 12.6295 19 13.1818V23C19 23.5523 18.5523 24 18 24H16C15.4477 24 15 23.5523 15 23V13.1818Z" fill="#000"/>
</svg>
