<svg width="28" height="28" viewBox="0 0 28 28" fill="none" xmlns="http://www.w3.org/2000/svg">
<path fill-rule="evenodd" clip-rule="evenodd" d="M6.93932 6.93934C7.52511 6.35355 8.47486 6.35355 9.06064 6.93934L14 11.8787L18.9393 6.93934C19.5251 6.35355 20.4748 6.35355 21.0606 6.93934C21.6464 7.52513 21.6464 8.47487 21.0606 9.06066L16.1213 14L21.0606 18.9393C21.6464 19.5251 21.6464 20.4749 21.0606 21.0606C20.4748 21.6464 19.5251 21.6464 18.9393 21.0606L14 16.1213L9.06064 21.0606C8.47486 21.6464 7.52511 21.6464 6.93932 21.0606C6.35354 20.4749 6.35354 19.5251 6.93932 18.9393L11.8787 14L6.93932 9.06066C6.35354 8.47487 6.35354 7.52513 6.93932 6.93934Z" fill="#000"/>
</svg>
