<svg width="28" height="28" viewBox="0 0 28 28" fill="none" xmlns="http://www.w3.org/2000/svg">
<path fill-rule="evenodd" clip-rule="evenodd" d="M5 7V9.88889H9.90909V7H5ZM12.3004 4.56326C11.9404 4.21459 11.4498 4 10.9091 4H4C2.89543 4 2 4.89543 2 6V10.8889C2 11.4454 2.22732 11.9489 2.59418 12.3114C2.95542 12.6685 3.45197 12.8889 4 12.8889H10.9091C11.4498 12.8889 11.9404 12.6743 12.3004 12.3256C12.3053 12.3209 12.3101 12.3162 12.3149 12.3114C12.6818 11.9489 12.9091 11.4454 12.9091 10.8889V6C12.9091 5.43616 12.6758 4.92682 12.3004 4.56326ZM12.3004 15.6743C11.9404 15.3257 11.4498 15.1111 10.9091 15.1111H4C3.45197 15.1111 2.95542 15.3315 2.59418 15.6885C2.22732 16.0511 2 16.5546 2 17.1111V22C2 23.1046 2.89543 24 4 24H10.9091C11.4498 24 11.9404 23.7854 12.3004 23.4367C12.6758 23.0732 12.9091 22.5638 12.9091 22V17.1111C12.9091 17.1111 12.9091 17.1111 12.9091 17.1111C12.9091 16.5546 12.6818 16.0511 12.3149 15.6885C12.3101 15.6838 12.3053 15.6791 12.3004 15.6743ZM15.6851 15.6885C15.3182 16.0511 15.0909 16.5546 15.0909 17.1111V22C15.0909 22.5638 15.3242 23.0732 15.6996 23.4367C16.0596 23.7854 16.5502 24 17.0909 24H24C25.1046 24 26 23.1045 26 22V17.1111C26 16.5546 25.7727 16.0511 25.4058 15.6885C25.0446 15.3315 24.548 15.1111 24 15.1111H17.0909C16.5502 15.1111 16.0596 15.3257 15.6996 15.6743C15.6947 15.6791 15.6899 15.6838 15.6851 15.6885ZM15.6996 12.3256C16.0596 12.6743 16.5502 12.8889 17.0909 12.8889H24C24.548 12.8889 25.0446 12.6685 25.4058 12.3114C25.7727 11.9489 26 11.4454 26 10.8889V6C26 4.89543 25.1046 4 24 4H17.0909C16.5502 4 16.0596 4.21459 15.6996 4.56326C15.3242 4.92682 15.0909 5.43616 15.0909 6V10.8889C15.0909 11.4454 15.3182 11.9489 15.6851 12.3114C15.6899 12.3162 15.6947 12.3209 15.6996 12.3256ZM5 18.1111V21H9.90909V18.1111H5ZM18.0909 7V9.88889H23V7H18.0909ZM18.0909 18.1111V21H23V18.1111H18.0909Z" fill="#000"/>
</svg>
