<svg width="28" height="28" viewBox="0 0 28 28" fill="none" xmlns="http://www.w3.org/2000/svg">
<path d="M14.6508 3.55782C14.2763 3.23683 13.7237 3.23683 13.3492 3.55782L4.53011 11.1171C4.4003 11.1863 4.28755 11.2833 4.1998 11.4002L2.05247 13.2407C1.34758 13.8449 1.77486 15 2.70326 15H4.00001V24C4.00001 24.5523 4.44772 25 5.00001 25H13V18H15V25H23C23.5523 25 24 24.5523 24 24V15H25.2968C26.2252 15 26.6524 13.8449 25.9475 13.2407L23.8002 11.4002C23.7125 11.2833 23.5997 11.1863 23.4699 11.1171L14.6508 3.55782Z" fill="#000"/>
</svg>
