<svg width="28" height="28" viewBox="0 0 28 28" fill="none" xmlns="http://www.w3.org/2000/svg">
<path fill-rule="evenodd" clip-rule="evenodd" d="M0 11C0 6.85786 3.35786 3.5 7.5 3.5H13.5C17.6421 3.5 21 6.85786 21 11C21 15.1421 17.6421 18.5 13.5 18.5H12.4998C12.186 18.0822 12 17.5628 12 17C12 16.4372 12.186 15.9178 12.4998 15.5H13.5C15.9853 15.5 18 13.4853 18 11C18 8.51472 15.9853 6.5 13.5 6.5H7.5C5.01472 6.5 3 8.51472 3 11C3 12.6596 3.89835 14.1093 5.23529 14.8894C5.0813 15.5682 5 16.2746 5 17C5 17.3703 5.02119 17.7357 5.06243 18.095C2.11688 17.0832 0 14.2888 0 11ZM28 17C28 21.1421 24.6421 24.5 20.5 24.5H14.5C10.3579 24.5 7 21.1421 7 17C7 12.8579 10.3579 9.5 14.5 9.5H15.5002C15.814 9.91783 16 10.4372 16 11C16 11.5628 15.814 12.0822 15.5002 12.5H14.5C12.0147 12.5 10 14.5147 10 17C10 19.4853 12.0147 21.5 14.5 21.5H20.5C22.9853 21.5 25 19.4853 25 17C25 15.3404 24.1016 13.8907 22.7647 13.1106C22.9187 12.4318 23 11.7254 23 11C23 10.6297 22.9788 10.2643 22.9376 9.90501C25.8831 10.9168 28 13.7112 28 17Z" fill="#000"/>
</svg>
