<svg width="22" height="24" viewBox="0 0 22 24" fill="none" xmlns="http://www.w3.org/2000/svg">
<path fill-rule="evenodd" clip-rule="evenodd" d="M12.9618 0.800049C13.266 0.800049 13.5256 1.01995 13.5755 1.31998L14.1117 4.5313C14.7581 4.80091 15.362 5.15199 15.9106 5.57171L18.9616 4.42953C19.2465 4.32282 19.5667 4.43768 19.7187 4.70113L21.6805 8.09896C21.8325 8.36241 21.7719 8.69717 21.5371 8.89056L19.0227 10.9604C19.0664 11.3008 19.0889 11.6478 19.0889 12C19.0889 12.3523 19.0664 12.6993 19.0227 13.0397L21.5371 15.1097C21.7719 15.3029 21.8325 15.6377 21.6805 15.9011L19.7187 19.299C19.5667 19.5624 19.2465 19.6773 18.9616 19.5706L15.9106 18.4284C15.362 18.8481 14.7581 19.1992 14.1117 19.4688L13.5755 22.6801C13.5256 22.9802 13.266 23.2 12.9618 23.2H9.03828C8.73401 23.2 8.47442 22.9802 8.42452 22.6801L7.88837 19.4688C7.24197 19.1992 6.63805 18.8481 6.08944 18.4284L3.03863 19.5706C2.7538 19.6773 2.43357 19.5624 2.28148 19.299L0.319692 15.9011C0.167609 15.6377 0.228263 15.3029 0.46309 15.1097L2.97715 13.0383C2.93359 12.6984 2.91114 12.3518 2.91114 12C2.91114 11.6483 2.93359 11.3017 2.97715 10.9618L0.46309 8.89056C0.228263 8.69717 0.167609 8.36241 0.319692 8.09896L2.28148 4.70113C2.43357 4.43768 2.7538 4.32282 3.03863 4.42953L6.08944 5.57171C6.63805 5.15199 7.24197 4.80091 7.88837 4.5313L8.42452 1.31998C8.47442 1.01995 8.73401 0.800049 9.03828 0.800049H12.9618ZM11 8.88894C9.28182 8.88894 7.88891 10.2818 7.88891 12C7.88891 13.7183 9.28182 15.1112 11 15.1112C12.7182 15.1112 14.1111 13.7183 14.1111 12C14.1111 10.2818 12.7182 8.88894 11 8.88894Z" fill="#000"/>
</svg>
