<svg width="36" height="36" viewBox="0 0 36 36" fill="none" xmlns="http://www.w3.org/2000/svg">
<mask id="path-1-inside-1" fill="white">
<path fill-rule="evenodd" clip-rule="evenodd" d="M18 26C22.4183 26 26 22.4183 26 18C26 13.5817 22.4183 10 18 10C13.5817 10 10 13.5817 10 18C10 22.4183 13.5817 26 18 26ZM18.9415 14.9604C18.9415 15.4833 18.522 15.9208 17.9902 15.9208C17.4585 15.9208 17.039 15.4833 17.039 14.9604C17.039 14.4375 17.4585 14 17.9902 14C18.522 14 18.9415 14.4375 18.9415 14.9604ZM19 16.4488V22H17V16.4488H19Z"/>
</mask>
<path fill-rule="evenodd" clip-rule="evenodd" d="M18 26C22.4183 26 26 22.4183 26 18C26 13.5817 22.4183 10 18 10C13.5817 10 10 13.5817 10 18C10 22.4183 13.5817 26 18 26ZM18.9415 14.9604C18.9415 15.4833 18.522 15.9208 17.9902 15.9208C17.4585 15.9208 17.039 15.4833 17.039 14.9604C17.039 14.4375 17.4585 14 17.9902 14C18.522 14 18.9415 14.4375 18.9415 14.9604ZM19 16.4488V22H17V16.4488H19Z" fill="#000"/>
<path d="M19 22V24H21V22H19ZM19 16.4488H21V14.4488H19V16.4488ZM17 22H15V24H17V22ZM17 16.4488V14.4488H15V16.4488H17ZM24 18C24 21.3137 21.3137 24 18 24V28C23.5228 28 28 23.5228 28 18H24ZM18 12C21.3137 12 24 14.6863 24 18H28C28 12.4772 23.5228 8 18 8V12ZM12 18C12 14.6863 14.6863 12 18 12V8C12.4772 8 8 12.4772 8 18H12ZM18 24C14.6863 24 12 21.3137 12 18H8C8 23.5228 12.4772 28 18 28V24ZM17.9902 17.9208C19.6633 17.9208 20.9415 16.5508 20.9415 14.9604H16.9415C16.9415 14.4159 17.3806 13.9208 17.9902 13.9208V17.9208ZM15.039 14.9604C15.039 16.5508 16.3172 17.9208 17.9902 17.9208V13.9208C18.5999 13.9208 19.039 14.4159 19.039 14.9604H15.039ZM17.9902 12C16.3172 12 15.039 13.37 15.039 14.9604H19.039C19.039 15.5049 18.5999 16 17.9902 16V12ZM20.9415 14.9604C20.9415 13.37 19.6633 12 17.9902 12V16C17.3806 16 16.9415 15.5049 16.9415 14.9604H20.9415ZM21 22V16.4488H17V22H21ZM17 24H19V20H17V24ZM15 16.4488V22H19V16.4488H15ZM19 14.4488H17V18.4488H19V14.4488Z" fill="#000" mask="url(#path-1-inside-1)"/>
</svg>
