<svg width="72" height="72" viewBox="0 0 72 72" fill="none" xmlns="http://www.w3.org/2000/svg">
<path d="M38.16 15.84C26.2307 15.84 16.56 25.5107 16.56 37.44C16.56 44.1853 19.6519 50.2085 24.4958 54.1696C25.5699 55.0479 25.7603 56.6853 24.7792 57.6664L17.6919 64.7538C16.9273 65.5184 15.7102 65.605 14.8856 64.9056C7.10074 58.3021 2.16 48.448 2.16 37.44C2.16 17.5577 18.2778 1.44 38.16 1.44C49.168 1.44 59.0221 6.38074 65.6256 14.1656C66.325 14.9902 66.2384 16.2073 65.4738 16.9719L58.3864 24.0592C57.4053 25.0403 55.7679 24.8499 54.8896 23.7758C50.9285 18.9319 44.9053 15.84 38.16 15.84Z" fill="#000"/>
<path d="M36.172 40.6182C35.2649 39.7111 35.9074 38.16 37.1903 38.16H65.3938C66.1891 38.16 66.8338 38.8047 66.8338 39.6V67.8035C66.8338 69.0864 65.2827 69.7289 64.3756 68.8218L55.5812 60.0274L46.7487 68.8594C45.3985 70.2095 43.5673 70.968 41.658 70.9681L20.8312 70.9688C24.3877 69.6801 27.6177 67.6257 30.2926 64.9509L45.399 49.8452L36.172 40.6182Z" fill="#000"/>
</svg>
